<svg width="627" height="627" viewBox="0 0 627 627" fill="none" xmlns="http://www.w3.org/2000/svg">
<path d="M588.858 174.254C585.608 162.026 579.204 150.867 570.287 141.892C561.369 132.917 550.251 126.442 538.044 123.114C493.24 111.031 313.5 111.031 313.5 111.031C313.5 111.031 133.76 111.031 88.9556 123.114C76.7492 126.442 65.6309 132.917 56.7134 141.892C47.7959 150.867 41.3919 162.026 38.1425 174.254C26.125 219.385 26.125 313.5 26.125 313.5C26.125 313.5 26.125 407.615 38.1425 452.746C41.3919 464.974 47.7959 476.133 56.7134 485.108C65.6309 494.083 76.7492 500.558 88.9556 503.886C133.76 515.969 313.5 515.969 313.5 515.969C313.5 515.969 493.24 515.969 538.044 503.886C550.251 500.558 561.369 494.083 570.287 485.108C579.204 476.133 585.608 464.974 588.858 452.746C600.875 407.615 600.875 313.5 600.875 313.5C600.875 313.5 600.875 219.385 588.858 174.254Z" fill="#F44336"/>
<path d="M458.775 253.215L437.338 285.551C447.676 306.23 452.738 329.158 452.069 352.281C451.399 375.404 445.021 397.999 433.504 418.042H191.947C176.978 392 170.776 361.814 174.259 331.959C177.742 302.104 190.725 274.169 211.283 252.296C231.841 230.423 258.88 215.776 288.391 210.526C317.902 205.277 348.314 209.704 375.119 223.151L407.362 201.652C374.535 180.542 335.597 171.082 296.776 174.786C257.956 178.49 221.495 195.145 193.227 222.085C164.959 249.026 146.517 284.696 140.85 323.39C135.184 362.084 142.62 401.566 161.97 435.521C165.011 440.804 169.378 445.197 174.637 448.264C179.896 451.33 185.864 452.963 191.947 453H433.33C439.472 453.024 445.511 451.421 450.837 448.351C456.162 445.282 460.584 440.855 463.655 435.521C479.713 407.623 487.772 375.817 486.942 343.616C486.111 311.414 476.424 280.069 458.95 253.04L458.775 253.215ZM288.151 372.771C291.389 376.022 295.233 378.6 299.464 380.359C303.696 382.118 308.232 383.024 312.812 383.024C317.393 383.024 321.929 382.118 326.161 380.359C330.392 378.6 334.236 376.022 337.474 372.771L436.118 224.375L288.151 323.306C284.91 326.553 282.339 330.408 280.585 334.652C278.831 338.896 277.928 343.445 277.928 348.039C277.928 352.633 278.831 357.182 280.585 361.425C282.339 365.669 284.91 369.525 288.151 372.771Z" fill="white"/>
</svg>
